This was a request for Mr. S.

Source: I can't remember for sure, but I think I got it from here.

Encoded for PSP & iPod & Zune

Resolution: 320 X 240

I have tested this on a PSP Slim 2000 w/ 5.00 M33.6 (custom firmware) & a PSP 1000 5.00 (official Sony)

I haven't tested this on Zune or iPod Touch as I don't have one, but if someone would test it and let me know, it would be nice.

If you need/want to get in touch with me (request, reseed, etc.). Send an email to movi3sdir3ct@hotbox.ru

Please seed when finished downloading and leave a comment, request, etc. And above all ENJOY!

If anyone would like any tv show, movie, music video, or yes, even XXX, for PSP or any other handheld device for that matter. I would be more than happy to do it for you. Just leave a comment or send an email to movi3sdir3ct@hotbox.ru 

I check my email hourly.


Psycho (1960)

Director: Alfred Hitchcock

Cast : Janet Leigh, Anthony Perkins, Martin Balsam

Synopsis: Marion Crane,a young woman on the run from the law, stops in at a strange motel, run by Norman Bates. Watch the last shower she ever takes.

Review : This classic film stands the test of time, remaining one of the master directors greatest triumphs. Hitchcock was never rivalled in his time, and continues to remain so to this day.


General Nfo
Format                           : MPEG-4
Codec ID                         : M4V 
File size                        : 568 MiB
Duration                         : 1h 48mn
Overall bit rate                 : 732 Kbps
Movie name                       : Psycho (1960)
Encoded date                     : 2010
Writing application              : Lavf52.33.0

Video
ID                               : 1
Format                           : AVC
Format/Info                      : Advanced Video Codec
Format profile                   : Baseline@L1.3
Format settings, CABAC           : No
Format settings, ReFrames        : 1 frame
Codec ID                         : avc1
Codec ID/Info                    : Advanced Video Coding
Duration                         : 1h 48mn
Bit rate mode                    : Variable
Bit rate                         : 640 Kbps
Width                            : 320 pixels
Height                           : 240 pixels
Display aspect ratio             : 4:3
Frame rate mode                  : Constant
Frame rate                       : 29.970 fps
Color space                      : YUV
Chroma subsampling               : 4:2:0
Bit depth                        : 8 bits
Scan type                        : Progressive
Bits/(Pixel*Frame)               : 0.278
Stream size                      : 496 MiB (87%)

Audio
ID                               : 2
Format                           : AAC
Format/Info                      : Advanced Audio Codec
Format version                   : Version 4
Format profile                   : LC
Format settings, SBR             : No
Codec ID                         : 40
Duration                         : 1h 48mn
Bit rate mode                    : Variable
Bit rate                         : 87.4 Kbps
Channel(s)                       : 2 channels
Channel positions                : Front: L R
Sampling rate                    : 48.0 KHz
Stream size                      : 67.8 MiB (12%)



More of my stuff here - http://thepiratebay.org/user/The_Day_Walker

My RSS Feed - http://rss.thepiratebay.org/user/ee512d573c1dcdf705dd6925ea080014